<?xml version="1.0" encoding="UTF-8" standalone="no"?>
<!-- Created with Inkscape (http://www.inkscape.org/) -->
<svg id="svg35081" xmlns:rdf="http://www.w3.org/1999/02/22-rdf-syntax-ns#" xmlns="http://www.w3.org/2000/svg" xmlns:osb="http://www.openswatchbook.org/uri/2009/osb" height="25" viewBox="0 0 25 25" width="25" version="1.1" xmlns:cc="http://creativecommons.org/ns#" xmlns:dc="http://purl.org/dc/elements/1.1/">
 <title id="title11663">Communication Annunciator Pane</title>
 <metadata id="metadata35086">
  <rdf:RDF>
   <cc:Work rdf:about="">
    <dc:format>image/svg+xml</dc:format>
    <dc:type rdf:resource="http://purl.org/dc/dcmitype/StillImage"/>
    <dc:title>Communication Annunciator Pane</dc:title>
   </cc:Work>
  </rdf:RDF>
 </metadata>
 <g id="layer9" transform="translate(0,-375)">
  <path id="path6103" fill="#f4d7d7" d="m9.0441 386.05c-0.57043 0-1.0972 0.13675-1.5804 0.41018-0.47983 0.27338-0.88253 0.6607-1.208 1.162-0.3389 0.52155-0.59724 1.1469-0.77509 1.876-0.17784 0.72908-0.26677 1.5416-0.26677 2.4378 0 0.96202 0.092179 1.8102 0.27673 2.5444 0.18791 0.73416 0.45131 1.3467 0.79021 1.8379 0.33891 0.49111 0.74329 0.86081 1.2131 1.1089 0.47312 0.24809 0.98824 0.37209 1.5452 0.37209 0.37582 0 0.67103-0.0278 0.88578-0.0833 0.21475-0.0556 0.44466-0.13676 0.6896-0.24301 0.18791-0.0808 0.36745-0.17717 0.53857-0.28866 0.17113-0.1115 0.35067-0.23042 0.53858-0.357v-2.7037h-0.20134c-0.0906 0.12142-0.20639 0.26583-0.34732 0.43292-0.14093 0.16688-0.2936 0.32404-0.45802 0.47085-0.19462 0.18215-0.40777 0.32657-0.6393 0.43289-0.22818 0.10627-0.45965 0.15967-0.69453 0.15967-0.24495 0-0.49329-0.0584-0.74495-0.17482-0.25166-0.12142-0.47976-0.32149-0.68444-0.59998-0.20133-0.27341-0.36918-0.64806-0.5034-1.124-0.13087-0.47592-0.19629-1.0683-0.19629-1.7772 6e-7 -0.67848 0.060365-1.2556 0.18117-1.7316 0.12415-0.47594 0.28525-0.85816 0.48323-1.1468 0.20804-0.29874 0.43457-0.5115 0.67952-0.63805 0.24495-0.13188 0.50329-0.19754 0.77508-0.19754 0.24494 0 0.47484 0.0556 0.68961 0.16707 0.21475 0.1115 0.41442 0.24816 0.59896 0.4102 0.1812 0.16183 0.34217 0.32648 0.48311 0.49356 0.14428 0.16707 0.26345 0.3114 0.35741 0.43292h0.2215v-2.7416c-0.13758-0.1014-0.29868-0.21021-0.48323-0.32661-0.1812-0.12142-0.38423-0.23036-0.60905-0.32656-0.21475-0.0862-0.4496-0.15426-0.70461-0.20519-0.25166-0.0556-0.53518-0.0833-0.8506-0.0833zm3.1893 0.37288v11.352h2.2427v-3.6976h1.3959c0.63466 0 1.1642-0.11439 1.5886-0.34306 0.4283-0.2287 0.81574-0.56675 1.1623-1.014 0.25308-0.3304 0.44768-0.73702 0.58396-1.2199 0.13628-0.48794 0.20446-0.98609 0.20446-1.4944 0-0.65566-0.09344-1.2172-0.28033-1.6848-0.183-0.46761-0.44976-0.85141-0.80018-1.1513-0.29202-0.24907-0.62882-0.43455-1.0104-0.55655-0.37768-0.12702-0.84289-0.19056-1.3958-0.19056h-3.6911zm2.2427 2.1195h0.3855c0.36989 0 0.66577 0.009 0.8877 0.0227 0.22194 0.009 0.44974 0.0763 0.68336 0.19813 0.17521 0.0917 0.329 0.25415 0.46138 0.48798 0.13238 0.22869 0.19858 0.50322 0.19858 0.82342 0 0.32527-0.03308 0.60218-0.0993 0.83093-0.06231 0.22363-0.16545 0.41684-0.30951 0.57952-0.16742 0.18294-0.3757 0.30494-0.6249 0.36592-0.24529 0.061-0.55883 0.0917-0.9404 0.0917h-0.64242v-3.4003z"/>
 </g>
</svg>
