<!-- Created with Inkscape (http://www.inkscape.org/) --><svg xmlns:osb="http://www.openswatchbook.org/uri/2009/osb" xmlns:dc="http://purl.org/dc/elements/1.1/" xmlns:cc="http://creativecommons.org/ns#" xmlns:rdf="http://www.w3.org/1999/02/22-rdf-syntax-ns#" xmlns:svg="http://www.w3.org/2000/svg" xmlns="http://www.w3.org/2000/svg" xmlns:sodipodi="http://sodipodi.sourceforge.net/DTD/sodipodi-0.dtd" xmlns:inkscape="http://www.inkscape.org/namespaces/inkscape" width="25" height="25" id="svg35081" version="1.1" inkscape:version="0.91 r13725" viewBox="0 0 25 25" sodipodi:docname="Base_Alarm.svg">
  <title id="title11663">Communication Annunciator Pane</title>
  <defs id="defs35083">
    <linearGradient id="linearGradient4234" osb:paint="solid">
      <stop style="stop-color:#000000;stop-opacity:1;" offset="0" id="stop4236"/>
    </linearGradient>
    <linearGradient id="linearGradient5359" osb:paint="gradient">
      <stop style="stop-color:#000097;stop-opacity:1;" offset="0" id="stop5361"/>
      <stop style="stop-color:#000097;stop-opacity:0;" offset="1" id="stop5363"/>
    </linearGradient>
  </defs>
  <sodipodi:namedview id="base" pagecolor="#ffffff" bordercolor="#666666" borderopacity="1.0" inkscape:pageopacity="0.0" inkscape:pageshadow="2" inkscape:zoom="22.627417" inkscape:cx="8.7801758" inkscape:cy="19.149881" inkscape:current-layer="layer3" showgrid="true" inkscape:document-units="px" inkscape:grid-bbox="true" showguides="true" inkscape:guide-bbox="true" inkscape:window-width="1536" inkscape:window-height="897" inkscape:window-x="-8" inkscape:window-y="-8" inkscape:window-maximized="1">
    <sodipodi:guide position="0.50703643,13.783113" orientation="1,0" id="guide4181"/>
    <sodipodi:guide position="25.770728,24.489097" orientation="0,1" id="guide4183"/>
    <sodipodi:guide position="24.505669,25.118864" orientation="1,0" id="guide4185"/>
    <sodipodi:guide position="-2.3903146,0.49668874" orientation="0,1" id="guide4187"/>
  </sodipodi:namedview>
  <metadata id="metadata35086">
    <rdf:RDF>
      <cc:Work rdf:about="">
        <dc:format>image/svg+xml</dc:format>
        <dc:type rdf:resource="http://purl.org/dc/dcmitype/StillImage"/>
        <dc:title>Communication Annunciator Pane</dc:title>
      </cc:Work>
    </rdf:RDF>
  </metadata>
  <svg:g style="display:inline" inkscape:label="Alarm_VC" id="g4258" inkscape:groupmode="layer" transform="translate(0,-375)">
    <svg:path style="font-style:normal;font-variant:normal;font-weight:bold;font-stretch:normal;font-size:medium;line-height:125%;font-family:sans-serif;-inkscape-font-specification:'sans-serif Bold';text-align:start;letter-spacing:0px;word-spacing:0px;writing-mode:lr-tb;text-anchor:start;fill:#f4d7d7;fill-opacity:1;stroke:none;stroke-width:0.83207607;stroke-linecap:butt;stroke-linejoin:miter;stroke-miterlimit:4;stroke-dasharray:none;stroke-opacity:1" d="m 16.139825,386.64742 c -0.511252,0 -0.983366,0.12539 -1.416428,0.37638 -0.43005,0.25091 -0.790954,0.60644 -1.082671,1.06645 -0.303743,0.47854 -0.535378,1.05232 -0.694767,1.72141 -0.159391,0.6691 -0.239033,1.4148 -0.239033,2.23725 0,0.88278 0.08275,1.66107 0.248157,2.33476 0.168414,0.67374 0.404474,1.23601 0.708214,1.68673 0.303747,0.4507 0.666084,0.78985 1.087112,1.01748 0.424042,0.2277 0.885631,0.34164 1.384854,0.34164 0.336824,0 0.601584,-0.0258 0.794053,-0.0769 0.192474,-0.0511 0.398394,-0.12539 0.617932,-0.22305 0.168417,-0.0743 0.329376,-0.16256 0.482746,-0.26478 0.153367,-0.10212 0.314217,-0.2114 0.482632,-0.32753 l 0,-2.48132 -0.180446,0 c -0.08118,0.1115 -0.18488,0.24402 -0.311188,0.39737 -0.126301,0.15318 -0.263235,0.29733 -0.410593,0.43208 -0.174428,0.16707 -0.365401,0.29964 -0.572913,0.39723 -0.204499,0.0976 -0.411974,0.14632 -0.622492,0.14632 -0.219538,0 -0.442081,-0.0532 -0.667635,-0.16021 -0.22555,-0.1115 -0.430039,-0.29511 -0.613488,-0.55067 -0.180444,-0.25091 -0.330759,-0.5946 -0.451054,-1.03141 -0.117288,-0.43676 -0.176003,-0.98043 -0.176003,-1.63096 0,-0.62264 0.05417,-1.15222 0.162437,-1.58899 0.111275,-0.43677 0.255607,-0.7877 0.433044,-1.05255 0.186456,-0.27413 0.389392,-0.46921 0.608927,-0.58538 0.21954,-0.12088 0.451171,-0.18116 0.694768,-0.18116 0.219536,0 0.425579,0.0511 0.61805,0.15317 0.192474,0.1023 0.371368,0.22765 0.536775,0.37635 0.162384,0.14849 0.306738,0.29977 0.433043,0.45309 0.129334,0.15317 0.236108,0.2857 0.320313,0.39722 l 0.198453,0 0,-2.51603 c -0.1233,-0.0929 -0.267637,-0.19294 -0.433044,-0.29967 -0.1624,-0.1115 -0.344281,-0.21136 -0.545778,-0.29962 -0.192471,-0.0788 -0.403057,-0.14181 -0.631619,-0.18816 -0.225548,-0.0511 -0.479665,-0.0767 -0.762358,-0.0767 z m -9.5009204,0.0316 2.341464,10.79996 1.8541544,0 2.341344,-10.79996 -1.694599,0 -1.5523322,7.5868 -1.552332,-7.5868 -1.7376992,0 z" id="path6108" inkscape:connector-curvature="0"/>
  </svg:g>
  </svg>