<?xml version="1.0" encoding="UTF-8" standalone="no"?>
<!-- Created with Inkscape (http://www.inkscape.org/) -->
<svg id="svg35081" xmlns:rdf="http://www.w3.org/1999/02/22-rdf-syntax-ns#" xmlns="http://www.w3.org/2000/svg" xmlns:osb="http://www.openswatchbook.org/uri/2009/osb" height="25" viewBox="0 0 25 25" width="25" version="1.1" xmlns:cc="http://creativecommons.org/ns#" xmlns:dc="http://purl.org/dc/elements/1.1/">
 <title id="title11663">Communication Annunciator Pane</title>
 <metadata id="metadata35086">
  <rdf:RDF>
   <cc:Work rdf:about="">
    <dc:format>image/svg+xml</dc:format>
    <dc:type rdf:resource="http://purl.org/dc/dcmitype/StillImage"/>
    <dc:title>Communication Annunciator Pane</dc:title>
   </cc:Work>
  </rdf:RDF>
 </metadata>
 <g id="layer4" transform="translate(0,-375)">
  <g id="layer1-3" fill="#f4d7d7" transform="matrix(.25797 0 0 .25050 -63.999 369.02)">
   <path id="path1406" style="color-rendering:auto;text-decoration-color:#000000;color:#000000;isolation:auto;mix-blend-mode:normal;shape-rendering:auto;solid-color:#000000;text-decoration-line:none;text-decoration-style:solid;image-rendering:auto;white-space:normal;text-indent:0;text-transform:none" d="m296.86 56.154c-1.7685 0-3.2204 1.4525-3.2204 3.221 0 0.19204 0.02 0.37912 0.053 0.56224-6.6464 2.023-10.108 9.4771-10.64 16.828-1.4834 10.241-5.7302 15.238-9.7772 19.985-5.5092 4.4128-2.5337 8.816 1.1504 8.6268 7.4812 0.4715 14.945 0.5033 22.458 0.4414 7.5125 0.062 14.976 0.03 22.458-0.4414 3.6841 0.1892 6.6596-4.214 1.1503-8.6268-4.0469-4.7473-8.2937-9.7443-9.7771-19.985-0.5334-7.367-4.0086-14.838-10.684-16.842 0.031-0.17878 0.051-0.36108 0.051-0.5483 0-1.7685-1.4524-3.221-3.221-3.221zm0.021 2.0485c0.6778 0 1.2097 0.53186 1.2097 1.2097 0 0.0352-0.01 0.068-0.01 0.10234-0.3908-0.0504-0.7878-0.0895-1.1973-0.1044-0.4111 0.0148-0.8097 0.0542-1.202 0.10491 0-0.0345-0.01-0.0675-0.01-0.10285 0-0.67786 0.5319-1.2097 1.2097-1.2097zm5.7051 49.393c-0.1609 0.02-0.3244 0.034-0.4909 0.034h-10.923c-0.026 0.2148-0.039 0.4308-0.04 0.647 0 3.1762 2.5749 5.751 5.7511 5.7511 3.1762-0.0001 5.751-2.5749 5.751-5.7511 0-0.2276-0.019-0.4549-0.048-0.6806z" fill="#f4d7d7"/>
  </g>
 </g>
</svg>
