<!-- Created with Inkscape (http://www.inkscape.org/) --><svg xmlns:osb="http://www.openswatchbook.org/uri/2009/osb" xmlns:dc="http://purl.org/dc/elements/1.1/" xmlns:cc="http://creativecommons.org/ns#" xmlns:rdf="http://www.w3.org/1999/02/22-rdf-syntax-ns#" xmlns:svg="http://www.w3.org/2000/svg" xmlns="http://www.w3.org/2000/svg" xmlns:sodipodi="http://sodipodi.sourceforge.net/DTD/sodipodi-0.dtd" xmlns:inkscape="http://www.inkscape.org/namespaces/inkscape" width="25" height="25" id="svg35081" version="1.1" inkscape:version="0.91 r13725" viewBox="0 0 25 25" sodipodi:docname="Base_Alarm.svg">
  <title id="title11663">Communication Annunciator Pane</title>
  <defs id="defs35083">
    <linearGradient id="linearGradient4234" osb:paint="solid">
      <stop style="stop-color:#000000;stop-opacity:1;" offset="0" id="stop4236"/>
    </linearGradient>
    <linearGradient id="linearGradient5359" osb:paint="gradient">
      <stop style="stop-color:#000097;stop-opacity:1;" offset="0" id="stop5361"/>
      <stop style="stop-color:#000097;stop-opacity:0;" offset="1" id="stop5363"/>
    </linearGradient>
  </defs>
  <sodipodi:namedview id="base" pagecolor="#ffffff" bordercolor="#666666" borderopacity="1.0" inkscape:pageopacity="0.0" inkscape:pageshadow="2" inkscape:zoom="22.627417" inkscape:cx="8.7801758" inkscape:cy="19.149881" inkscape:current-layer="layer3" showgrid="true" inkscape:document-units="px" inkscape:grid-bbox="true" showguides="true" inkscape:guide-bbox="true" inkscape:window-width="1536" inkscape:window-height="897" inkscape:window-x="-8" inkscape:window-y="-8" inkscape:window-maximized="1">
    <sodipodi:guide position="0.50703643,13.783113" orientation="1,0" id="guide4181"/>
    <sodipodi:guide position="25.770728,24.489097" orientation="0,1" id="guide4183"/>
    <sodipodi:guide position="24.505669,25.118864" orientation="1,0" id="guide4185"/>
    <sodipodi:guide position="-2.3903146,0.49668874" orientation="0,1" id="guide4187"/>
  </sodipodi:namedview>
  <metadata id="metadata35086">
    <rdf:RDF>
      <cc:Work rdf:about="">
        <dc:format>image/svg+xml</dc:format>
        <dc:type rdf:resource="http://purl.org/dc/dcmitype/StillImage"/>
        <dc:title>Communication Annunciator Pane</dc:title>
      </cc:Work>
    </rdf:RDF>
  </metadata>
  <svg:g inkscape:label="Alarm_RP" id="g6489" inkscape:groupmode="layer" style="display:inline" transform="translate(0,-375)">
    <svg:path style="font-style:normal;font-variant:normal;font-weight:bold;font-stretch:normal;font-size:medium;line-height:125%;font-family:sans-serif;-inkscape-font-specification:'sans-serif Bold';text-align:start;letter-spacing:0px;word-spacing:0px;writing-mode:lr-tb;text-anchor:start;fill:#f4d7d7;fill-opacity:1;stroke:none;stroke-width:0.90273851;stroke-linecap:butt;stroke-linejoin:miter;stroke-miterlimit:4;stroke-dasharray:none;stroke-opacity:1" d="m 6.4864325,387.02956 0,10.41504 1.7877631,0 0,-3.81913 0.8282705,0 1.9000159,3.81913 2.194875,0 -2.325856,-4.46257 c 0.443025,-0.32172 0.78301,-0.7251 1.020121,-1.21006 0.240233,-0.48496 0.360409,-1.11218 0.360409,-1.88157 0,-0.55957 -0.078,-1.0236 -0.23399,-1.39199 -0.152875,-0.37305 -0.360303,-0.67608 -0.622374,-0.90925 -0.258953,-0.23316 -0.536683,-0.38474 -0.833072,-0.45469 -0.296393,-0.07 -0.6504358,-0.10518 -1.062261,-0.10518 l -3.0139015,0 z m 6.8118925,0 0,10.36052 1.936873,0 0,-3.37462 1.205608,0 c 0.548119,0 1.005355,-0.10428 1.371888,-0.31315 0.369896,-0.20876 0.704511,-0.5172 1.003793,-0.9254 0.218576,-0.30153 0.386664,-0.67266 0.504359,-1.11333 0.117695,-0.44531 0.176604,-0.8998 0.176604,-1.36367 0,-0.59841 -0.08077,-1.11106 -0.242157,-1.53782 -0.158047,-0.42673 -0.388404,-0.77692 -0.691045,-1.05066 -0.252204,-0.22729 -0.54303,-0.39651 -0.872571,-0.50784 -0.326181,-0.11619 -0.727988,-0.1741 -1.205487,-0.1741 l -3.187865,0 z m -5.0241294,1.91659 0.6504667,0 c 0.2152762,0 0.404073,0.009 0.5663068,0.0281 0.1622343,0.0126 0.3041662,0.0586 0.4258413,0.13297 0.1747146,0.10735 0.2978936,0.25399 0.3696546,0.44053 0.07176,0.18655 0.107691,0.41045 0.107691,0.6716 0,0.29376 -0.02969,0.52915 -0.08896,0.70635 -0.05616,0.17248 -0.146653,0.33114 -0.271449,0.47565 -0.131036,0.14939 -0.2932734,0.24488 -0.4867093,0.28683 -0.1934343,0.0419 -0.4336697,0.063 -0.7206998,0.063 l -0.5521403,0 0,-2.80484 z m 6.9610024,0.018 0.332918,0 c 0.319454,0 0.575006,0.007 0.76668,0.0208 0.191669,0.009 0.388431,0.0698 0.590201,0.18098 0.151327,0.0833 0.284134,0.23196 0.398467,0.44534 0.114318,0.20876 0.17144,0.45914 0.17144,0.75136 0,0.2969 -0.02856,0.54975 -0.08571,0.75851 -0.05381,0.20416 -0.142945,0.38029 -0.267366,0.52874 -0.14459,0.16706 -0.324438,0.27832 -0.539654,0.33398 -0.211843,0.0556 -0.482516,0.0834 -0.812062,0.0834 l -0.554902,0 0,-3.10333 z" id="path6113" inkscape:connector-curvature="0"/>
  </svg:g>
  </svg>