<?xml version="1.0" encoding="UTF-8" standalone="no"?>
<!-- Created with Inkscape (http://www.inkscape.org/) -->
<svg id="svg35081" xmlns:rdf="http://www.w3.org/1999/02/22-rdf-syntax-ns#" xmlns="http://www.w3.org/2000/svg" xmlns:osb="http://www.openswatchbook.org/uri/2009/osb" height="25" viewBox="0 0 25 25" width="25" version="1.1" xmlns:cc="http://creativecommons.org/ns#" xmlns:dc="http://purl.org/dc/elements/1.1/">
 <title id="title11663">Communication Annunciator Pane</title>
 <metadata id="metadata35086">
  <rdf:RDF>
   <cc:Work rdf:about="">
    <dc:format>image/svg+xml</dc:format>
    <dc:type rdf:resource="http://purl.org/dc/dcmitype/StillImage"/>
    <dc:title>Communication Annunciator Pane</dc:title>
   </cc:Work>
  </rdf:RDF>
 </metadata>
 <g id="layer3" transform="translate(0,-375)">
  <path id="path4597" fill="#ffd5d5" d="m16.031 388.31c1.0168 1.7936 1.5304 2.8562 1.9898 4.2941 0.40931 1.2815 0.64032 2.2941 0.66766 2.7068 0.07907 1.1932-0.31649 1.3943-0.82481 1.6212-0.50832 0.22693-1.1824 0.51796-1.5953 0.58757-0.27539 0.0465-0.52206 0.074-0.81589-0.36937-0.2938-0.4432-1.1911-1.987-1.4104-2.4001-0.3927-0.73951-0.09065-0.84635 0.20277-1.1466 0.29338-0.3002 1.0655-0.77809 1.1541-1.1985 0.09217-0.43763-0.04336-0.66518-0.2268-1.1007-0.17537-0.41633-0.91374-1.7168-0.97987-1.8331 0 0-0.0028-0.004-0.0037-0.007-0.06614-0.11619-0.80591-1.4159-1.0719-1.775-0.27792-0.37587-0.40448-0.60918-0.81407-0.72983-0.39357-0.11583-1.1575 0.37641-1.5471 0.50748-0.38951 0.13098-0.62132 0.3615-1.055-0.35212-0.24218-0.39865-1.1109-1.9605-1.3432-2.4425-0.23231-0.48202-0.093033-0.69839 0.075638-0.93241 0.25286-0.35086 0.81427-0.84015 1.2438-1.2056 0.42958-0.36547 0.78432-0.63827 1.7454-0.002 0.33248 0.22 1.0708 0.91219 1.9502 1.8968 0.98664 1.1049 1.6334 2.0834 2.6549 3.874l0.0037 0.007z"/>
 </g>
</svg>
