<?xml version="1.0" encoding="UTF-8" standalone="no"?>
<!-- Created with Inkscape (http://www.inkscape.org/) -->
<svg id="svg35081" xmlns:rdf="http://www.w3.org/1999/02/22-rdf-syntax-ns#" xmlns="http://www.w3.org/2000/svg" xmlns:osb="http://www.openswatchbook.org/uri/2009/osb" height="25" viewBox="0 0 25 25" width="25" version="1.1" xmlns:cc="http://creativecommons.org/ns#" xmlns:dc="http://purl.org/dc/elements/1.1/">
 <title id="title11663">Communication Annunciator Pane</title>
 <metadata id="metadata35086">
  <rdf:RDF>
   <cc:Work rdf:about="">
    <dc:format>image/svg+xml</dc:format>
    <dc:type rdf:resource="http://purl.org/dc/dcmitype/StillImage"/>
    <dc:title>Communication Annunciator Pane</dc:title>
   </cc:Work>
  </rdf:RDF>
 </metadata>
 <g id="g4245" transform="translate(0,-375)">
  <path id="path6098" fill="#f4d7d7" d="m12.891 386.62v10.764h2.0615v-3.506h1.2829c0.58335 0 1.07-0.10825 1.4601-0.32531 0.39367-0.21686 0.74987-0.53728 1.0684-0.96137 0.23262-0.31324 0.41152-0.69879 0.53677-1.1566 0.12524-0.46263 0.18789-0.9349 0.18789-1.4169 0-0.62166-0.08586-1.1542-0.25764-1.5975-0.16821-0.44338-0.41337-0.80721-0.73547-1.0916-0.26841-0.23615-0.57803-0.41211-0.92876-0.52778-0.34715-0.12052-0.77474-0.18078-1.2829-0.18078h-3.3928zm-5.8275 0.0556-3.0869 10.708h2.1721l0.57807-2.1646h3.0982l0.57807 2.1646h2.2281l-3.0869-10.708h-2.4807zm7.889 1.9539h0.35429c0.33999 0 0.61192 0.007 0.8159 0.0218 0.204 0.009 0.41341 0.0725 0.62814 0.18814 0.16105 0.0868 0.30236 0.24089 0.42404 0.46261 0.12167 0.21682 0.18248 0.47718 0.18248 0.78079 0 0.30841-0.03041 0.57102-0.09124 0.78786-0.05725 0.21209-0.15201 0.39526-0.28442 0.54945-0.15388 0.17338-0.34543 0.28915-0.57447 0.34698-0.22546 0.0579-0.51356 0.087-0.86429 0.087h-0.59044v-3.2241zm-6.6767 0.78601 1.0271 3.8403h-2.0542l1.0271-3.8403z"/>
 </g>
</svg>
