<?xml version="1.0" encoding="UTF-8" standalone="no"?>
<!-- Created with Inkscape (http://www.inkscape.org/) -->
<svg id="svg35081" xmlns:rdf="http://www.w3.org/1999/02/22-rdf-syntax-ns#" xmlns="http://www.w3.org/2000/svg" xmlns:osb="http://www.openswatchbook.org/uri/2009/osb" height="25" viewBox="0 0 25 25" width="25" version="1.1" xmlns:cc="http://creativecommons.org/ns#" xmlns:dc="http://purl.org/dc/elements/1.1/">
 <title id="title11663">Communication Annunciator Pane</title>
 <metadata id="metadata35086">
  <rdf:RDF>
   <cc:Work rdf:about="">
    <dc:format>image/svg+xml</dc:format>
    <dc:type rdf:resource="http://purl.org/dc/dcmitype/StillImage"/>
    <dc:title>Communication Annunciator Pane</dc:title>
   </cc:Work>
  </rdf:RDF>
 </metadata>
 <g id="g4268" transform="translate(0,-375)">
  <path id="path6206" fill="none" d="m1.2955 394.25c-0.196-0.13-0.2819-0.31-0.38443-0.78-0.23512-1.09-0.32861-2.04-0.32755-3.31 0.003029-3.6454 1.0976-7.1572 3.1058-9.9645 0.40005-0.55924 1.4646-1.7282 1.9636-2.1562 1.0709-0.91854 2.1268-1.57 3.3226-2.0504 1.0028-0.40274 1.2584-0.43359 1.5298-0.18455 0.24423 0.2241 0.31207 0.58227 0.16931 0.89379-0.10037 0.21905-0.24455 0.32134-0.64044 0.45462-0.52764 0.17753-0.78278 0.28156-1.2737 0.51891-3.9967 1.9329-6.6794 6.6525-6.8598 12.068-0.03697 1.11 0.053791 2.181 0.28297 3.3389 0.13688 0.69157 0.1014 0.89734-0.19762 1.1458-0.14996 0.12467-0.51934 0.1373-0.6906 0.0236z"/>
  <g fill="#800000">
   <path id="path6208" d="m2.6781 391.22c-0.15213-0.11276-0.1979-0.32394-0.21514-0.99192-0.082258-3.1877 1.4657-7.228 3.8405-10.024 0.64142-0.75517 1.518-1.5704 1.911-1.7772 0.34715-0.18276 0.66843 0.21399 0.50741 0.62648-0.021305 0.0547-0.16799 0.19999-0.32596 0.32302-2.0118 1.5676-3.801 4.4159-4.6591 7.4172-0.38796 1.3568-0.52713 2.482-0.47487 3.8393 0.015239 0.39573-0.00982 0.48199-0.17283 0.59468-0.11927 0.0825-0.29413 0.0794-0.41104-0.009z"/>
   <path id="path6210" d="m1.2443 394.25c-0.18188-0.1299-0.26158-0.30425-0.35678-0.77955-0.21821-1.0894-0.30498-2.0338-0.304-3.3084 0.002813-3.6454 1.0187-7.1572 2.8825-9.9645 0.37128-0.55924 1.3593-1.7282 1.8224-2.1562 0.99392-0.91854 1.9738-1.57 3.0837-2.0504 0.93071-0.40274 1.1679-0.43359 1.4198-0.18455 0.22667 0.2241 0.28963 0.58227 0.15713 0.89379-0.093145 0.21905-0.22697 0.32134-0.59439 0.45462-0.4897 0.17753-0.72649 0.28156-1.1821 0.51891-3.7093 1.9329-6.1991 6.6525-6.3665 12.068-0.034311 1.11 0.049924 2.181 0.26262 3.3389 0.12703 0.69157 0.094105 0.89734-0.18341 1.1458-0.13917 0.12467-0.482 0.1373-0.64094 0.0236z"/>
   <path id="path6212" d="m23.328 394.45c-0.1583-0.0981-0.26146-0.24874-0.31512-0.45937-0.03547-0.13929-0.0281-0.23052 0.05328-0.66232 0.53487-2.838 0.29012-6.1513-0.66542-9.0084-0.38746-1.1585-1.0421-2.519-1.6217-3.3702-1.4536-2.1349-3.2567-3.3718-5.545-3.8035-0.47791-0.09-0.60991-0.16544-0.74403-0.42412-0.08136-0.15697-0.08967-0.51297-0.01587-0.68075 0.12092-0.27507 0.40343-0.44022 0.67653-0.39557 0.77719 0.12701 1.4014 0.29583 2.0366 0.5506 1.0568 0.42389 2.0592 1.069 2.9303 1.8861 0.42276 0.39649 1.2338 1.353 1.5775 1.8605 1.6405 2.4219 2.6289 5.5343 2.8643 9.0199 0.05204 0.77041 0.02215 2.5719-0.05357 3.2277-0.06699 0.58013-0.20968 1.4707-0.28079 1.7524-0.02904 0.1151-0.08574 0.25843-0.12606 0.31865-0.17168 0.25673-0.52312 0.34263-0.77111 0.18855z"/>
   <path id="path6214" d="m22.119 391.41c-0.03531-0.018-0.09935-0.0824-0.14231-0.1418l-0.07811-0.10753-0.0036-1.1196c-0.0033-1.0546-0.0087-1.1515-0.0926-1.6711-0.17534-1.0851-0.44472-2.0464-0.88589-3.1613-1.0091-2.5502-2.5962-4.7469-4.3527-6.025-0.35674-0.25958-0.43064-0.3694-0.43064-0.63994 0-0.14054 0.01972-0.19776 0.10722-0.30979 0.2136-0.2735 0.33997-0.24427 0.94055 0.21756 0.75716 0.58219 1.3011 1.1259 1.9805 1.9798 0.69895 0.87842 1.1901 1.6316 1.7108 2.6237 1.2898 2.4575 1.9852 5.2484 1.8444 7.4024-0.01944 0.297-0.05628 0.60422-0.08187 0.68274-0.07932 0.24307-0.32431 0.3712-0.51583 0.26977z"/>
  </g>
 </g>
</svg>
